<svg xmlns="http://www.w3.org/2000/svg" xmlns:xlink="http://www.w3.org/1999/xlink" width="2172" zoomAndPan="magnify" viewBox="0 0 1628.88 543.000006" height="724" preserveAspectRatio="xMidYMid meet" version="1.0"><defs><g/><clipPath id="4d39a8706c"><path d="M 1.4375 131 L 1627.324219 131 L 1627.324219 411 L 1.4375 411 Z M 1.4375 131 " clip-rule="nonzero"/></clipPath><clipPath id="3bdfb0f8bb"><rect x="0" width="1627" y="0" height="280"/></clipPath></defs><g clip-path="url(#4d39a8706c)"><g transform="matrix(1, 0, 0, 1, 1, 131)"><g clip-path="url(#3bdfb0f8bb)"><g fill="#044dfc" fill-opacity="1"><g transform="translate(0.454569, 214.888144)"><g><path d="M 159.921875 -55.875 C 160.234375 -54.320312 160.503906 -52.726562 160.734375 -51.09375 C 160.960938 -49.46875 161.15625 -47.878906 161.3125 -46.328125 C 161.15625 -44.617188 160.960938 -42.945312 160.734375 -41.3125 C 160.503906 -39.6875 160.3125 -38.019531 160.15625 -36.3125 C 159.6875 -32.894531 159.179688 -29.519531 158.640625 -26.1875 C 158.097656 -22.851562 157.4375 -19.554688 156.65625 -16.296875 C 154.644531 -8.691406 151.234375 -3.957031 146.421875 -2.09375 C 141.609375 0.0703125 135.554688 -0.9375 128.265625 -5.125 C 127.179688 -5.738281 125.707031 -6.046875 123.84375 -6.046875 C 122.132812 -6.046875 120.347656 -5.738281 118.484375 -5.125 C 105.609375 -0.78125 90.085938 -0.0820312 71.921875 -3.03125 C 64.316406 -4.425781 57.566406 -6.789062 51.671875 -10.125 C 45.773438 -13.457031 40.691406 -17.21875 36.421875 -21.40625 C 32.160156 -25.601562 28.632812 -29.71875 25.84375 -33.75 C 19.164062 -43.21875 14.351562 -53.578125 11.40625 -64.828125 C 8.457031 -76.078125 7.835938 -86.4375 9.546875 -95.90625 C 12.023438 -109.40625 17.179688 -121.816406 25.015625 -133.140625 C 32.859375 -144.472656 42.910156 -154.019531 55.171875 -161.78125 C 66.492188 -169.070312 78.398438 -174 90.890625 -176.5625 C 103.390625 -179.125 114.757812 -179.007812 125 -176.21875 C 129.1875 -174.976562 133.492188 -173.269531 137.921875 -171.09375 C 142.347656 -168.914062 145.957031 -165.578125 148.75 -161.078125 C 150.757812 -157.671875 151.535156 -153.867188 151.078125 -149.671875 C 150.921875 -147.660156 150.144531 -146.1875 148.75 -145.25 C 147.039062 -144.164062 145.019531 -144.085938 142.6875 -145.015625 C 117.394531 -154.328125 93.035156 -149.75 69.609375 -131.28125 C 56.253906 -120.726562 48.644531 -106.84375 46.78125 -89.625 C 44.613281 -71.625 51.597656 -56.957031 67.734375 -45.625 C 83.722656 -34.601562 101.414062 -32.507812 120.8125 -39.34375 C 122.675781 -39.957031 124.5 -41.039062 126.28125 -42.59375 C 128.0625 -44.144531 128.800781 -46.707031 128.5 -50.28125 L 128.5 -50.984375 C 128.5 -51.597656 128.535156 -52.332031 128.609375 -53.1875 C 128.691406 -54.039062 128.734375 -54.859375 128.734375 -55.640625 C 128.878906 -57.960938 128.953125 -60.207031 128.953125 -62.375 C 128.953125 -64.550781 128.332031 -66.414062 127.09375 -67.96875 C 126.007812 -69.519531 124.457031 -70.488281 122.4375 -70.875 C 120.425781 -71.269531 118.332031 -71.546875 116.15625 -71.703125 C 115.226562 -71.703125 114.335938 -71.738281 113.484375 -71.8125 C 112.628906 -71.882812 111.8125 -72 111.03125 -72.15625 L 109.171875 -72.390625 C 108.085938 -72.703125 107 -72.972656 105.90625 -73.203125 C 104.820312 -73.441406 103.738281 -73.71875 102.65625 -74.03125 C 98.46875 -75.882812 96.296875 -78.910156 96.140625 -83.109375 C 95.984375 -86.359375 97.378906 -88.835938 100.328125 -90.546875 C 114.296875 -98.929688 128.882812 -100.796875 144.09375 -96.140625 C 148.125 -95.054688 150.992188 -92.804688 152.703125 -89.390625 C 154.410156 -85.972656 155.5 -83.023438 155.96875 -80.546875 C 156.738281 -76.503906 157.472656 -72.390625 158.171875 -68.203125 C 158.867188 -64.015625 159.453125 -59.90625 159.921875 -55.875 Z M 159.921875 -55.875 "/></g></g></g><g fill="#044dfc" fill-opacity="1"><g transform="translate(170.612551, 214.888144)"><g><path d="M 82.171875 -109.40625 C 89.148438 -108.320312 95.203125 -105.800781 100.328125 -101.84375 C 105.453125 -97.882812 109.253906 -92.957031 111.734375 -87.0625 C 114.210938 -81.164062 114.910156 -74.722656 113.828125 -67.734375 C 112.742188 -59.359375 110.53125 -51.5625 107.1875 -44.34375 C 103.851562 -37.125 99.160156 -30.566406 93.109375 -24.671875 C 83.179688 -15.054688 71.15625 -10.320312 57.03125 -10.46875 C 52.21875 -11.5625 47.367188 -12.535156 42.484375 -13.390625 C 37.597656 -14.242188 32.828125 -15.445312 28.171875 -17 C 19.015625 -20.25 12.335938 -25.441406 8.140625 -32.578125 C 3.953125 -39.722656 2.554688 -48.109375 3.953125 -57.734375 C 5.660156 -69.054688 9.5 -78.945312 15.46875 -87.40625 C 21.445312 -95.863281 29.328125 -103.039062 39.109375 -108.9375 C 47.484375 -113.90625 56.484375 -115.070312 66.109375 -112.4375 C 68.742188 -111.65625 71.421875 -111.03125 74.140625 -110.5625 C 76.859375 -110.101562 79.535156 -109.71875 82.171875 -109.40625 Z M 75.421875 -64.484375 C 77.285156 -70.066406 75.890625 -74.488281 71.234375 -77.75 C 66.890625 -80.851562 63.550781 -82.832031 61.21875 -83.6875 C 58.894531 -84.539062 56.800781 -84.148438 54.9375 -82.515625 C 53.070312 -80.890625 50.664062 -77.90625 47.71875 -73.5625 C 46.789062 -72.164062 46.015625 -71 45.390625 -70.0625 C 40.890625 -62.144531 39.492188 -56.597656 41.203125 -53.421875 C 42.910156 -50.242188 48.265625 -48.421875 57.265625 -47.953125 C 61.921875 -47.796875 65.523438 -48.921875 68.078125 -51.328125 C 70.640625 -53.734375 73.085938 -58.117188 75.421875 -64.484375 Z M 75.421875 -64.484375 "/></g></g></g><g fill="#feb604" fill-opacity="1"><g transform="translate(290.503781, 214.888144)"><g><path d="M 216.015625 -49.8125 C 216.484375 -41.59375 215.707031 -33.132812 213.6875 -24.4375 C 212.445312 -19.78125 210.3125 -16.132812 207.28125 -13.5 C 204.257812 -10.863281 200.65625 -9.46875 196.46875 -9.3125 C 192.738281 -9.15625 189.085938 -10.238281 185.515625 -12.5625 C 181.953125 -14.894531 179.707031 -18.546875 178.78125 -23.515625 C 175.675781 -38.566406 173.503906 -56.101562 172.265625 -76.125 C 171.796875 -81.550781 171.597656 -86.976562 171.671875 -92.40625 C 171.753906 -97.84375 171.796875 -103.195312 171.796875 -108.46875 C 171.796875 -110.957031 171.832031 -113.476562 171.90625 -116.03125 C 171.988281 -118.59375 172.03125 -121.117188 172.03125 -123.609375 C 172.03125 -125.003906 171.910156 -126.476562 171.671875 -128.03125 C 171.441406 -129.582031 170.9375 -131.210938 170.15625 -132.921875 L 167.828125 -137.8125 L 164.578125 -131.0625 C 164.265625 -130.28125 163.953125 -129.5 163.640625 -128.71875 C 163.328125 -127.945312 163.019531 -127.175781 162.71875 -126.40625 C 161.625 -123.300781 160.535156 -120.234375 159.453125 -117.203125 C 158.367188 -114.179688 157.285156 -111.117188 156.203125 -108.015625 C 154.335938 -102.734375 152.507812 -97.453125 150.71875 -92.171875 C 148.9375 -86.898438 147.035156 -81.703125 145.015625 -76.578125 L 144.796875 -75.65625 C 143.703125 -72.707031 142.570312 -69.71875 141.40625 -66.6875 C 140.25 -63.664062 138.894531 -60.757812 137.34375 -57.96875 C 132.84375 -50.507812 126.945312 -46.628906 119.65625 -46.328125 C 112.507812 -46.015625 106.457031 -49.269531 101.5 -56.09375 C 98.695312 -59.820312 96.25 -63.78125 94.15625 -67.96875 C 92.0625 -72.15625 90.082031 -76.425781 88.21875 -80.78125 C 86.050781 -85.4375 83.921875 -90.164062 81.828125 -94.96875 C 79.734375 -99.78125 77.675781 -104.59375 75.65625 -109.40625 C 74.71875 -111.738281 73.707031 -114.101562 72.625 -116.5 C 71.539062 -118.90625 70.535156 -121.351562 69.609375 -123.84375 C 69.140625 -124.925781 68.476562 -126.085938 67.625 -127.328125 C 66.769531 -128.566406 65.644531 -129.882812 64.25 -131.28125 L 60.75 -134.3125 L 59.359375 -125.234375 C 59.203125 -123.679688 59.003906 -122.085938 58.765625 -120.453125 C 58.535156 -118.828125 58.34375 -117.238281 58.1875 -115.6875 C 57.570312 -109.789062 56.953125 -103.929688 56.328125 -98.109375 C 55.710938 -92.296875 55.09375 -86.441406 54.46875 -80.546875 C 53.695312 -72.316406 52.882812 -64.128906 52.03125 -55.984375 C 51.175781 -47.835938 50.28125 -39.648438 49.34375 -31.421875 C 49.1875 -28.628906 48.914062 -25.875 48.53125 -23.15625 C 48.144531 -20.445312 47.5625 -17.847656 46.78125 -15.359375 C 45.539062 -10.546875 43.132812 -6.742188 39.5625 -3.953125 C 36 -1.160156 31.96875 0.15625 27.46875 0 C 22.8125 -0.15625 18.8125 -1.820312 15.46875 -5 C 12.132812 -8.1875 10.160156 -12.109375 9.546875 -16.765625 C 8.304688 -26.378906 8.304688 -35.144531 9.546875 -43.0625 C 15.128906 -77.363281 21.414062 -112.28125 28.40625 -147.8125 C 29.957031 -156.039062 32.828125 -164.035156 37.015625 -171.796875 C 40.890625 -178.617188 46.007812 -182.578125 52.375 -183.671875 C 53.300781 -183.816406 54.234375 -183.890625 55.171875 -183.890625 C 60.285156 -183.890625 65.097656 -181.875 69.609375 -177.84375 C 76.742188 -171.320312 84.269531 -162.007812 92.1875 -149.90625 C 94.664062 -146.1875 96.988281 -142.269531 99.15625 -138.15625 C 101.332031 -134.039062 103.585938 -129.890625 105.921875 -125.703125 C 106.847656 -123.679688 107.816406 -121.703125 108.828125 -119.765625 C 109.835938 -117.828125 110.882812 -115.847656 111.96875 -113.828125 L 114.53125 -109.171875 L 116.625 -114.0625 C 117.394531 -115.925781 118.128906 -117.785156 118.828125 -119.640625 C 119.523438 -121.503906 120.265625 -123.367188 121.046875 -125.234375 C 122.597656 -129.421875 124.148438 -133.453125 125.703125 -137.328125 C 127.253906 -141.210938 128.882812 -145.097656 130.59375 -148.984375 C 134.46875 -157.515625 139.125 -166.28125 144.5625 -175.28125 C 147.195312 -179.78125 150.609375 -183.972656 154.796875 -187.859375 C 162.085938 -194.523438 169.613281 -197.082031 177.375 -195.53125 C 185.132812 -193.976562 191.035156 -188.625 195.078125 -179.46875 C 202.210938 -163.800781 206.941406 -144.40625 209.265625 -121.28125 L 210.671875 -107.078125 C 211.753906 -97.765625 212.757812 -88.257812 213.6875 -78.5625 C 214.625 -68.863281 215.398438 -59.28125 216.015625 -49.8125 Z M 216.015625 -49.8125 "/></g></g></g><g fill="#feb604" fill-opacity="1"><g transform="translate(515.5965, 214.888144)"><g><path d="M 82.171875 -109.40625 C 89.148438 -108.320312 95.203125 -105.800781 100.328125 -101.84375 C 105.453125 -97.882812 109.253906 -92.957031 111.734375 -87.0625 C 114.210938 -81.164062 114.910156 -74.722656 113.828125 -67.734375 C 112.742188 -59.359375 110.53125 -51.5625 107.1875 -44.34375 C 103.851562 -37.125 99.160156 -30.566406 93.109375 -24.671875 C 83.179688 -15.054688 71.15625 -10.320312 57.03125 -10.46875 C 52.21875 -11.5625 47.367188 -12.535156 42.484375 -13.390625 C 37.597656 -14.242188 32.828125 -15.445312 28.171875 -17 C 19.015625 -20.25 12.335938 -25.441406 8.140625 -32.578125 C 3.953125 -39.722656 2.554688 -48.109375 3.953125 -57.734375 C 5.660156 -69.054688 9.5 -78.945312 15.46875 -87.40625 C 21.445312 -95.863281 29.328125 -103.039062 39.109375 -108.9375 C 47.484375 -113.90625 56.484375 -115.070312 66.109375 -112.4375 C 68.742188 -111.65625 71.421875 -111.03125 74.140625 -110.5625 C 76.859375 -110.101562 79.535156 -109.71875 82.171875 -109.40625 Z M 75.421875 -64.484375 C 77.285156 -70.066406 75.890625 -74.488281 71.234375 -77.75 C 66.890625 -80.851562 63.550781 -82.832031 61.21875 -83.6875 C 58.894531 -84.539062 56.800781 -84.148438 54.9375 -82.515625 C 53.070312 -80.890625 50.664062 -77.90625 47.71875 -73.5625 C 46.789062 -72.164062 46.015625 -71 45.390625 -70.0625 C 40.890625 -62.144531 39.492188 -56.597656 41.203125 -53.421875 C 42.910156 -50.242188 48.265625 -48.421875 57.265625 -47.953125 C 61.921875 -47.796875 65.523438 -48.921875 68.078125 -51.328125 C 70.640625 -53.734375 73.085938 -58.117188 75.421875 -64.484375 Z M 75.421875 -64.484375 "/></g></g></g><g fill="#feb604" fill-opacity="1"><g transform="translate(635.475248, 214.888144)"><g><path d="M 97.296875 -40.5 C 98.546875 -36.9375 98.625 -33.675781 97.53125 -30.71875 C 96.445312 -27.769531 94.585938 -25.054688 91.953125 -22.578125 C 88.066406 -19.003906 83.175781 -16.597656 77.28125 -15.359375 C 71.382812 -14.117188 65.332031 -14.003906 59.125 -15.015625 C 52.914062 -16.023438 47.5625 -18.3125 43.0625 -21.875 C 32.195312 -30.101562 26.066406 -41.046875 24.671875 -54.703125 C 24.054688 -59.359375 23.671875 -64.09375 23.515625 -68.90625 C 23.359375 -73.71875 23.203125 -78.453125 23.046875 -83.109375 C 23.046875 -85.429688 22.695312 -87.328125 22 -88.796875 C 21.300781 -90.273438 19.863281 -91.40625 17.6875 -92.1875 C 14.582031 -93.425781 12.140625 -95.207031 10.359375 -97.53125 C 8.578125 -99.863281 8.148438 -102.582031 9.078125 -105.6875 C 9.859375 -108.007812 11.21875 -110.296875 13.15625 -112.546875 C 15.09375 -114.796875 17.148438 -116.3125 19.328125 -117.09375 C 22.117188 -118.332031 24.25 -119.726562 25.71875 -121.28125 C 27.195312 -122.832031 28.015625 -125.160156 28.171875 -128.265625 C 28.328125 -131.054688 28.675781 -133.804688 29.21875 -136.515625 C 29.757812 -139.234375 30.265625 -141.992188 30.734375 -144.796875 C 32.429688 -154.253906 36.539062 -158.90625 43.0625 -158.75 C 49.738281 -158.601562 53.773438 -153.796875 55.171875 -144.328125 C 55.640625 -141.066406 55.910156 -137.765625 55.984375 -134.421875 C 56.054688 -131.085938 56.09375 -127.789062 56.09375 -124.53125 C 56.09375 -120.1875 58.269531 -117.9375 62.625 -117.78125 C 65.414062 -117.625 68.207031 -117.429688 71 -117.203125 C 73.789062 -116.972656 76.503906 -116.546875 79.140625 -115.921875 C 83.484375 -114.835938 86.816406 -112.625 89.140625 -109.28125 C 91.472656 -105.945312 92.488281 -102.34375 92.1875 -98.46875 C 91.875 -94.4375 90.242188 -90.984375 87.296875 -88.109375 C 84.347656 -85.234375 80.703125 -83.640625 76.359375 -83.328125 C 73.253906 -83.023438 70.03125 -82.910156 66.6875 -82.984375 C 63.351562 -83.066406 59.515625 -83.109375 55.171875 -83.109375 C 55.785156 -78.453125 56.328125 -73.753906 56.796875 -69.015625 C 57.265625 -64.285156 57.882812 -59.59375 58.65625 -54.9375 C 59.28125 -52.144531 60.640625 -50.125 62.734375 -48.875 C 64.828125 -47.632812 67.269531 -47.171875 70.0625 -47.484375 C 71.925781 -47.796875 73.75 -48.144531 75.53125 -48.53125 C 77.320312 -48.914062 79.148438 -49.1875 81.015625 -49.34375 C 84.578125 -49.65625 87.789062 -49.148438 90.65625 -47.828125 C 93.53125 -46.515625 95.742188 -44.070312 97.296875 -40.5 Z M 97.296875 -40.5 "/></g></g></g><g fill="#feb604" fill-opacity="1"><g transform="translate(742.551405, 214.888144)"><g><path d="M 43.296875 -99.390625 C 43.296875 -96.753906 43.296875 -92.914062 43.296875 -87.875 C 43.296875 -82.832031 43.253906 -77.4375 43.171875 -71.6875 C 43.097656 -65.945312 43.019531 -60.75 42.9375 -56.09375 C 42.863281 -51.4375 42.828125 -48.179688 42.828125 -46.328125 C 42.671875 -43.992188 42.476562 -41.660156 42.25 -39.328125 C 42.019531 -37.003906 41.671875 -34.679688 41.203125 -32.359375 C 40.117188 -26.148438 37.945312 -21.375 34.6875 -18.03125 C 31.425781 -14.695312 27.703125 -13.1875 23.515625 -13.5 C 19.316406 -13.8125 15.664062 -15.75 12.5625 -19.3125 C 9.46875 -22.882812 8.226562 -27.695312 8.84375 -33.75 C 9.78125 -45.238281 11.175781 -56.6875 13.03125 -68.09375 C 14.894531 -79.5 16.835938 -90.941406 18.859375 -102.421875 C 19.472656 -105.523438 20.984375 -108.007812 23.390625 -109.875 C 25.796875 -111.738281 28.785156 -112.4375 32.359375 -111.96875 C 35.921875 -111.65625 38.59375 -110.296875 40.375 -107.890625 C 42.164062 -105.484375 43.140625 -102.648438 43.296875 -99.390625 Z M 25.84375 -131.984375 C 22.113281 -132.140625 18.96875 -133.648438 16.40625 -136.515625 C 13.84375 -139.390625 12.5625 -142.847656 12.5625 -146.890625 C 12.5625 -150.921875 13.957031 -154.367188 16.75 -157.234375 C 19.550781 -160.109375 22.96875 -161.546875 27 -161.546875 C 30.882812 -161.546875 34.179688 -160.1875 36.890625 -157.46875 C 39.609375 -154.757812 40.890625 -151.382812 40.734375 -147.34375 C 40.734375 -143.15625 39.21875 -139.507812 36.1875 -136.40625 C 33.164062 -133.300781 29.71875 -131.828125 25.84375 -131.984375 Z M 25.84375 -131.984375 "/></g></g></g><g fill="#feb604" fill-opacity="1"><g transform="translate(794.692848, 214.888144)"><g><path d="M 114.53125 -114.0625 C 118.09375 -111.425781 120.378906 -107.859375 121.390625 -103.359375 C 122.398438 -98.859375 121.585938 -94.359375 118.953125 -89.859375 C 112.273438 -78.679688 105.640625 -67.546875 99.046875 -56.453125 C 92.453125 -45.359375 85.585938 -34.378906 78.453125 -23.515625 C 73.328125 -15.910156 66.960938 -11.910156 59.359375 -11.515625 C 51.753906 -11.128906 44.847656 -14.351562 38.640625 -21.1875 C 36.460938 -23.664062 34.484375 -26.335938 32.703125 -29.203125 C 30.921875 -32.078125 29.488281 -34.988281 28.40625 -37.9375 C 25.144531 -47.25 22.039062 -56.640625 19.09375 -66.109375 C 16.144531 -75.578125 13.195312 -85.046875 10.25 -94.515625 C 8.84375 -99.472656 8.375 -104.4375 8.84375 -109.40625 C 9.15625 -114.21875 11.171875 -117.4375 14.890625 -119.0625 C 18.617188 -120.695312 22.347656 -120.039062 26.078125 -117.09375 C 28.398438 -115.226562 30.53125 -113.09375 32.46875 -110.6875 C 34.40625 -108.28125 36.148438 -105.757812 37.703125 -103.125 C 41.117188 -97.382812 44.492188 -91.488281 47.828125 -85.4375 C 51.171875 -79.382812 54.625 -73.175781 58.1875 -66.8125 C 61.445312 -71.3125 64.628906 -75.769531 67.734375 -80.1875 C 70.835938 -84.613281 73.941406 -89 77.046875 -93.34375 C 79.222656 -96.289062 81.394531 -99.273438 83.5625 -102.296875 C 85.738281 -105.328125 88.144531 -108.160156 90.78125 -110.796875 C 94.351562 -114.367188 98.3125 -116.425781 102.65625 -116.96875 C 107 -117.507812 110.957031 -116.539062 114.53125 -114.0625 Z M 114.53125 -114.0625 "/></g></g></g><g fill="#feb604" fill-opacity="1"><g transform="translate(925.279226, 214.888144)"><g><path d="M 119.65625 -46.5625 C 121.207031 -39.570312 121.28125 -33.707031 119.875 -28.96875 C 118.476562 -24.238281 115.53125 -20.945312 111.03125 -19.09375 C 106.226562 -17.070312 101.5 -17.109375 96.84375 -19.203125 C 92.1875 -21.296875 87.835938 -25.289062 83.796875 -31.1875 C 83.484375 -31.65625 83.09375 -32.160156 82.625 -32.703125 C 82.164062 -33.242188 81.703125 -33.90625 81.234375 -34.6875 C 79.992188 -33.90625 78.867188 -33.085938 77.859375 -32.234375 C 76.859375 -31.378906 75.734375 -30.644531 74.484375 -30.03125 C 71.234375 -28.476562 67.976562 -26.804688 64.71875 -25.015625 C 61.457031 -23.234375 58.039062 -21.957031 54.46875 -21.1875 C 45.78125 -19.007812 37.828125 -19.394531 30.609375 -22.34375 C 23.390625 -25.289062 17.765625 -30.097656 13.734375 -36.765625 C 9.703125 -43.441406 8.070312 -51.285156 8.84375 -60.296875 C 9.3125 -67.585938 11.210938 -74.722656 14.546875 -81.703125 C 17.878906 -88.691406 22.144531 -95.171875 27.34375 -101.140625 C 32.550781 -107.117188 38.410156 -112.125 44.921875 -116.15625 C 51.441406 -120.1875 58.117188 -122.75 64.953125 -123.84375 C 72.703125 -125.238281 79.71875 -124.421875 86 -121.390625 C 92.289062 -118.367188 98.304688 -114.6875 104.046875 -110.34375 C 105.910156 -108.945312 107.269531 -106.769531 108.125 -103.8125 C 108.976562 -100.863281 109.640625 -98.070312 110.109375 -95.4375 C 111.972656 -87.363281 113.601562 -79.210938 115 -70.984375 C 116.394531 -62.765625 117.945312 -54.625 119.65625 -46.5625 Z M 52.375 -54.9375 C 59.507812 -57.726562 64.9375 -62.925781 68.65625 -70.53125 C 72.382812 -78.132812 73.472656 -86.359375 71.921875 -95.203125 C 64.171875 -92.097656 58.082031 -87.710938 53.65625 -82.046875 C 49.226562 -76.390625 45.695312 -69.914062 43.0625 -62.625 C 42.75 -61.53125 42.59375 -60.050781 42.59375 -58.1875 C 42.59375 -56.332031 42.90625 -55.25 43.53125 -54.9375 C 44.769531 -54.3125 46.203125 -54 47.828125 -54 C 49.460938 -54 50.976562 -54.3125 52.375 -54.9375 Z M 52.375 -54.9375 "/></g></g></g><g fill="#feb604" fill-opacity="1"><g transform="translate(1054.934457, 214.888144)"><g><path d="M 97.296875 -40.5 C 98.546875 -36.9375 98.625 -33.675781 97.53125 -30.71875 C 96.445312 -27.769531 94.585938 -25.054688 91.953125 -22.578125 C 88.066406 -19.003906 83.175781 -16.597656 77.28125 -15.359375 C 71.382812 -14.117188 65.332031 -14.003906 59.125 -15.015625 C 52.914062 -16.023438 47.5625 -18.3125 43.0625 -21.875 C 32.195312 -30.101562 26.066406 -41.046875 24.671875 -54.703125 C 24.054688 -59.359375 23.671875 -64.09375 23.515625 -68.90625 C 23.359375 -73.71875 23.203125 -78.453125 23.046875 -83.109375 C 23.046875 -85.429688 22.695312 -87.328125 22 -88.796875 C 21.300781 -90.273438 19.863281 -91.40625 17.6875 -92.1875 C 14.582031 -93.425781 12.140625 -95.207031 10.359375 -97.53125 C 8.578125 -99.863281 8.148438 -102.582031 9.078125 -105.6875 C 9.859375 -108.007812 11.21875 -110.296875 13.15625 -112.546875 C 15.09375 -114.796875 17.148438 -116.3125 19.328125 -117.09375 C 22.117188 -118.332031 24.25 -119.726562 25.71875 -121.28125 C 27.195312 -122.832031 28.015625 -125.160156 28.171875 -128.265625 C 28.328125 -131.054688 28.675781 -133.804688 29.21875 -136.515625 C 29.757812 -139.234375 30.265625 -141.992188 30.734375 -144.796875 C 32.429688 -154.253906 36.539062 -158.90625 43.0625 -158.75 C 49.738281 -158.601562 53.773438 -153.796875 55.171875 -144.328125 C 55.640625 -141.066406 55.910156 -137.765625 55.984375 -134.421875 C 56.054688 -131.085938 56.09375 -127.789062 56.09375 -124.53125 C 56.09375 -120.1875 58.269531 -117.9375 62.625 -117.78125 C 65.414062 -117.625 68.207031 -117.429688 71 -117.203125 C 73.789062 -116.972656 76.503906 -116.546875 79.140625 -115.921875 C 83.484375 -114.835938 86.816406 -112.625 89.140625 -109.28125 C 91.472656 -105.945312 92.488281 -102.34375 92.1875 -98.46875 C 91.875 -94.4375 90.242188 -90.984375 87.296875 -88.109375 C 84.347656 -85.234375 80.703125 -83.640625 76.359375 -83.328125 C 73.253906 -83.023438 70.03125 -82.910156 66.6875 -82.984375 C 63.351562 -83.066406 59.515625 -83.109375 55.171875 -83.109375 C 55.785156 -78.453125 56.328125 -73.753906 56.796875 -69.015625 C 57.265625 -64.285156 57.882812 -59.59375 58.65625 -54.9375 C 59.28125 -52.144531 60.640625 -50.125 62.734375 -48.875 C 64.828125 -47.632812 67.269531 -47.171875 70.0625 -47.484375 C 71.925781 -47.796875 73.75 -48.144531 75.53125 -48.53125 C 77.320312 -48.914062 79.148438 -49.1875 81.015625 -49.34375 C 84.578125 -49.65625 87.789062 -49.148438 90.65625 -47.828125 C 93.53125 -46.515625 95.742188 -44.070312 97.296875 -40.5 Z M 97.296875 -40.5 "/></g></g></g><g fill="#feb604" fill-opacity="1"><g transform="translate(1162.010648, 214.888144)"><g><path d="M 100.328125 -112.671875 C 106.222656 -106.617188 109.632812 -100.0625 110.5625 -93 C 111.5 -85.9375 110.101562 -79.414062 106.375 -73.4375 C 102.65625 -67.46875 96.835938 -63.085938 88.921875 -60.296875 C 82.554688 -58.117188 75.921875 -56.601562 69.015625 -55.75 C 62.109375 -54.894531 55.007812 -53.769531 47.71875 -52.375 C 49.894531 -51.75 51.988281 -51.085938 54 -50.390625 C 56.019531 -49.691406 58.039062 -49.191406 60.0625 -48.890625 C 64.09375 -48.109375 68.164062 -47.523438 72.28125 -47.140625 C 76.394531 -46.753906 80.390625 -45.9375 84.265625 -44.6875 C 89.847656 -42.832031 93.222656 -39.691406 94.390625 -35.265625 C 95.554688 -30.835938 94.046875 -26.53125 89.859375 -22.34375 C 87.679688 -20.019531 84.960938 -17.960938 81.703125 -16.171875 C 78.441406 -14.390625 75.257812 -13.34375 72.15625 -13.03125 C 57.882812 -11.632812 45.859375 -13.457031 36.078125 -18.5 C 26.304688 -23.550781 19.09375 -30.726562 14.4375 -40.03125 C 9.78125 -49.34375 7.914062 -59.742188 8.84375 -71.234375 C 9.46875 -78.367188 10.707031 -85.234375 12.5625 -91.828125 C 14.425781 -98.421875 17.378906 -104.742188 21.421875 -110.796875 C 26.535156 -118.710938 33.128906 -124.414062 41.203125 -127.90625 C 49.273438 -131.40625 57.96875 -132.222656 67.28125 -130.359375 C 80.46875 -128.023438 91.484375 -122.128906 100.328125 -112.671875 Z M 79.84375 -90.3125 C 80.15625 -90.3125 80.503906 -90.425781 80.890625 -90.65625 C 81.273438 -90.894531 81.78125 -91.171875 82.40625 -91.484375 C 79.457031 -95.671875 75.769531 -98.65625 71.34375 -100.4375 C 66.925781 -102.226562 62.773438 -102.582031 58.890625 -101.5 C 55.328125 -100.40625 52.691406 -98.578125 50.984375 -96.015625 C 49.273438 -93.460938 47.953125 -90.398438 47.015625 -86.828125 C 52.765625 -87.453125 58.351562 -88.035156 63.78125 -88.578125 C 69.207031 -89.117188 74.5625 -89.695312 79.84375 -90.3125 Z M 79.84375 -90.3125 "/></g></g></g><g fill="#044dfc" fill-opacity="1"><g transform="translate(1281.667026, 214.888144)"><g><path d="M 216.015625 -49.8125 C 216.484375 -41.59375 215.707031 -33.132812 213.6875 -24.4375 C 212.445312 -19.78125 210.3125 -16.132812 207.28125 -13.5 C 204.257812 -10.863281 200.65625 -9.46875 196.46875 -9.3125 C 192.738281 -9.15625 189.085938 -10.238281 185.515625 -12.5625 C 181.953125 -14.894531 179.707031 -18.546875 178.78125 -23.515625 C 175.675781 -38.566406 173.503906 -56.101562 172.265625 -76.125 C 171.796875 -81.550781 171.597656 -86.976562 171.671875 -92.40625 C 171.753906 -97.84375 171.796875 -103.195312 171.796875 -108.46875 C 171.796875 -110.957031 171.832031 -113.476562 171.90625 -116.03125 C 171.988281 -118.59375 172.03125 -121.117188 172.03125 -123.609375 C 172.03125 -125.003906 171.910156 -126.476562 171.671875 -128.03125 C 171.441406 -129.582031 170.9375 -131.210938 170.15625 -132.921875 L 167.828125 -137.8125 L 164.578125 -131.0625 C 164.265625 -130.28125 163.953125 -129.5 163.640625 -128.71875 C 163.328125 -127.945312 163.019531 -127.175781 162.71875 -126.40625 C 161.625 -123.300781 160.535156 -120.234375 159.453125 -117.203125 C 158.367188 -114.179688 157.285156 -111.117188 156.203125 -108.015625 C 154.335938 -102.734375 152.507812 -97.453125 150.71875 -92.171875 C 148.9375 -86.898438 147.035156 -81.703125 145.015625 -76.578125 L 144.796875 -75.65625 C 143.703125 -72.707031 142.570312 -69.71875 141.40625 -66.6875 C 140.25 -63.664062 138.894531 -60.757812 137.34375 -57.96875 C 132.84375 -50.507812 126.945312 -46.628906 119.65625 -46.328125 C 112.507812 -46.015625 106.457031 -49.269531 101.5 -56.09375 C 98.695312 -59.820312 96.25 -63.78125 94.15625 -67.96875 C 92.0625 -72.15625 90.082031 -76.425781 88.21875 -80.78125 C 86.050781 -85.4375 83.921875 -90.164062 81.828125 -94.96875 C 79.734375 -99.78125 77.675781 -104.59375 75.65625 -109.40625 C 74.71875 -111.738281 73.707031 -114.101562 72.625 -116.5 C 71.539062 -118.90625 70.535156 -121.351562 69.609375 -123.84375 C 69.140625 -124.925781 68.476562 -126.085938 67.625 -127.328125 C 66.769531 -128.566406 65.644531 -129.882812 64.25 -131.28125 L 60.75 -134.3125 L 59.359375 -125.234375 C 59.203125 -123.679688 59.003906 -122.085938 58.765625 -120.453125 C 58.535156 -118.828125 58.34375 -117.238281 58.1875 -115.6875 C 57.570312 -109.789062 56.953125 -103.929688 56.328125 -98.109375 C 55.710938 -92.296875 55.09375 -86.441406 54.46875 -80.546875 C 53.695312 -72.316406 52.882812 -64.128906 52.03125 -55.984375 C 51.175781 -47.835938 50.28125 -39.648438 49.34375 -31.421875 C 49.1875 -28.628906 48.914062 -25.875 48.53125 -23.15625 C 48.144531 -20.445312 47.5625 -17.847656 46.78125 -15.359375 C 45.539062 -10.546875 43.132812 -6.742188 39.5625 -3.953125 C 36 -1.160156 31.96875 0.15625 27.46875 0 C 22.8125 -0.15625 18.8125 -1.820312 15.46875 -5 C 12.132812 -8.1875 10.160156 -12.109375 9.546875 -16.765625 C 8.304688 -26.378906 8.304688 -35.144531 9.546875 -43.0625 C 15.128906 -77.363281 21.414062 -112.28125 28.40625 -147.8125 C 29.957031 -156.039062 32.828125 -164.035156 37.015625 -171.796875 C 40.890625 -178.617188 46.007812 -182.578125 52.375 -183.671875 C 53.300781 -183.816406 54.234375 -183.890625 55.171875 -183.890625 C 60.285156 -183.890625 65.097656 -181.875 69.609375 -177.84375 C 76.742188 -171.320312 84.269531 -162.007812 92.1875 -149.90625 C 94.664062 -146.1875 96.988281 -142.269531 99.15625 -138.15625 C 101.332031 -134.039062 103.585938 -129.890625 105.921875 -125.703125 C 106.847656 -123.679688 107.816406 -121.703125 108.828125 -119.765625 C 109.835938 -117.828125 110.882812 -115.847656 111.96875 -113.828125 L 114.53125 -109.171875 L 116.625 -114.0625 C 117.394531 -115.925781 118.128906 -117.785156 118.828125 -119.640625 C 119.523438 -121.503906 120.265625 -123.367188 121.046875 -125.234375 C 122.597656 -129.421875 124.148438 -133.453125 125.703125 -137.328125 C 127.253906 -141.210938 128.882812 -145.097656 130.59375 -148.984375 C 134.46875 -157.515625 139.125 -166.28125 144.5625 -175.28125 C 147.195312 -179.78125 150.609375 -183.972656 154.796875 -187.859375 C 162.085938 -194.523438 169.613281 -197.082031 177.375 -195.53125 C 185.132812 -193.976562 191.035156 -188.625 195.078125 -179.46875 C 202.210938 -163.800781 206.941406 -144.40625 209.265625 -121.28125 L 210.671875 -107.078125 C 211.753906 -97.765625 212.757812 -88.257812 213.6875 -78.5625 C 214.625 -68.863281 215.398438 -59.28125 216.015625 -49.8125 Z M 216.015625 -49.8125 "/></g></g></g><g fill="#044dfc" fill-opacity="1"><g transform="translate(1506.759745, 214.888144)"><g><path d="M 100.328125 -112.671875 C 106.222656 -106.617188 109.632812 -100.0625 110.5625 -93 C 111.5 -85.9375 110.101562 -79.414062 106.375 -73.4375 C 102.65625 -67.46875 96.835938 -63.085938 88.921875 -60.296875 C 82.554688 -58.117188 75.921875 -56.601562 69.015625 -55.75 C 62.109375 -54.894531 55.007812 -53.769531 47.71875 -52.375 C 49.894531 -51.75 51.988281 -51.085938 54 -50.390625 C 56.019531 -49.691406 58.039062 -49.191406 60.0625 -48.890625 C 64.09375 -48.109375 68.164062 -47.523438 72.28125 -47.140625 C 76.394531 -46.753906 80.390625 -45.9375 84.265625 -44.6875 C 89.847656 -42.832031 93.222656 -39.691406 94.390625 -35.265625 C 95.554688 -30.835938 94.046875 -26.53125 89.859375 -22.34375 C 87.679688 -20.019531 84.960938 -17.960938 81.703125 -16.171875 C 78.441406 -14.390625 75.257812 -13.34375 72.15625 -13.03125 C 57.882812 -11.632812 45.859375 -13.457031 36.078125 -18.5 C 26.304688 -23.550781 19.09375 -30.726562 14.4375 -40.03125 C 9.78125 -49.34375 7.914062 -59.742188 8.84375 -71.234375 C 9.46875 -78.367188 10.707031 -85.234375 12.5625 -91.828125 C 14.425781 -98.421875 17.378906 -104.742188 21.421875 -110.796875 C 26.535156 -118.710938 33.128906 -124.414062 41.203125 -127.90625 C 49.273438 -131.40625 57.96875 -132.222656 67.28125 -130.359375 C 80.46875 -128.023438 91.484375 -122.128906 100.328125 -112.671875 Z M 79.84375 -90.3125 C 80.15625 -90.3125 80.503906 -90.425781 80.890625 -90.65625 C 81.273438 -90.894531 81.78125 -91.171875 82.40625 -91.484375 C 79.457031 -95.671875 75.769531 -98.65625 71.34375 -100.4375 C 66.925781 -102.226562 62.773438 -102.582031 58.890625 -101.5 C 55.328125 -100.40625 52.691406 -98.578125 50.984375 -96.015625 C 49.273438 -93.460938 47.953125 -90.398438 47.015625 -86.828125 C 52.765625 -87.453125 58.351562 -88.035156 63.78125 -88.578125 C 69.207031 -89.117188 74.5625 -89.695312 79.84375 -90.3125 Z M 79.84375 -90.3125 "/></g></g></g></g></g></g></svg>