<svg xmlns="http://www.w3.org/2000/svg" width="1254" height="1254" viewBox="0 0 1254 1254" version="1.1"><path d="M 0 627.001 L 0 1254.002 627.250 1253.751 L 1254.500 1253.500 1254.751 626.750 L 1255.002 0 627.501 0 L 0 0 0 627.001 M 0.497 627.500 C 0.497 972.350, 0.611 1113.276, 0.750 940.668 C 0.889 768.060, 0.889 485.910, 0.750 313.668 C 0.611 141.426, 0.497 282.650, 0.497 627.500 M 872.095 268.385 C 871.463 269.147, 868.929 279.160, 866.464 290.635 C 857.081 334.318, 858.627 332.711, 818.500 340.479 C 805.300 343.034, 793.879 345.733, 793.120 346.478 C 791.128 348.431, 792.490 352.854, 795.265 353.445 C 796.494 353.707, 808.004 355.976, 820.843 358.488 C 858.038 365.764, 856.863 364.515, 865.926 406.405 C 871.094 430.292, 872.088 432.697, 876.349 431.627 C 879.375 430.868, 878.882 432.415, 884.402 406.359 C 893.381 363.975, 891.133 366.263, 931.914 358.022 C 955.698 353.215, 957.951 352.425, 957.985 348.872 C 958.012 345.925, 955.718 345.198, 930.488 340.161 C 890.310 332.140, 890.937 332.940, 880.983 277.026 C 879.258 267.336, 875.776 263.950, 872.095 268.385 M 571.539 313.235 C 512.695 320.594, 492.121 394.011, 538.422 431.409 C 566.327 453.948, 611.774 449.302, 632.742 421.766 C 670.337 372.395, 632.664 305.591, 571.539 313.235 M 408.971 412.955 C 401.921 416.683, 379.207 441.717, 365.832 460.500 C 281.206 579.338, 288.263 730.540, 383.253 833.762 C 393.738 845.155, 393.021 844.911, 416 844.948 C 504.913 845.092, 612.306 811.326, 609.605 784.076 C 595.525 642.019, 671.696 491.662, 789.739 428.500 C 813.582 415.742, 799.749 413.679, 755.500 423.393 C 608.196 455.730, 477.997 577.312, 413.777 742.500 C 406.167 762.072, 397.481 759.715, 381.361 733.706 C 331.086 652.588, 350.310 526.079, 424.637 448.912 C 432.666 440.577, 435.092 437.385, 436.041 433.912 C 440.228 418.585, 423.222 405.418, 408.971 412.955 M 905.832 458.529 C 904.365 459.326, 900.110 464.370, 896.377 469.739 C 892.643 475.107, 875.521 499.215, 858.328 523.311 C 825.605 569.172, 824.470 571.140, 827.428 576.862 C 830.363 582.536, 832.567 583, 856.588 583 L 878.275 583 877.581 591.750 C 860.972 801.292, 684.949 939.243, 493.187 893.005 C 468.924 887.154, 462.884 901.709, 485 912.735 C 701.050 1020.446, 955.663 843.045, 946.765 591 L 946.500 583.500 969.500 583 C 994.461 582.457, 995.828 582.167, 998.595 576.816 C 1002.042 570.150, 1005.720 575.992, 944.283 490.524 C 919.541 456.104, 915.890 453.067, 905.832 458.529 M 802.713 625.400 C 786.188 629.921, 779.197 652.043, 790.297 664.686 C 804.928 681.349, 832.956 671.043, 832.956 649 C 832.956 632.920, 817.971 621.226, 802.713 625.400 M 736.460 729.005 C 720.172 734.060, 715.602 758.066, 728.840 769.036 C 746.870 783.977, 772.300 766.626, 765.940 743.723 C 762.952 732.962, 747.909 725.452, 736.460 729.005 M 655.604 807.995 C 646.046 810.999, 641.378 822.754, 646.271 831.500 C 653.983 845.286, 675.260 840.761, 676.773 825.013 C 677.862 813.679, 666.522 804.563, 655.604 807.995" stroke="none" fill="#fefefe" fill-rule="evenodd"/><path d="M 571.539 313.235 C 512.695 320.594, 492.121 394.011, 538.422 431.409 C 566.327 453.948, 611.774 449.302, 632.742 421.766 C 670.337 372.395, 632.664 305.591, 571.539 313.235 M 408.971 412.955 C 401.921 416.683, 379.207 441.717, 365.832 460.500 C 281.206 579.338, 288.263 730.540, 383.253 833.762 C 393.738 845.155, 393.021 844.911, 416 844.948 C 504.913 845.092, 612.306 811.326, 609.605 784.076 C 595.525 642.019, 671.696 491.662, 789.739 428.500 C 813.582 415.742, 799.749 413.679, 755.500 423.393 C 608.196 455.730, 477.997 577.312, 413.777 742.500 C 406.167 762.072, 397.481 759.715, 381.361 733.706 C 331.086 652.588, 350.310 526.079, 424.637 448.912 C 432.666 440.577, 435.092 437.385, 436.041 433.912 C 440.228 418.585, 423.222 405.418, 408.971 412.955 M 905.832 458.529 C 904.365 459.326, 900.110 464.370, 896.377 469.739 C 892.643 475.107, 875.521 499.215, 858.328 523.311 C 825.605 569.172, 824.470 571.140, 827.428 576.862 C 830.363 582.536, 832.567 583, 856.588 583 L 878.275 583 877.581 591.750 C 860.972 801.292, 684.949 939.243, 493.187 893.005 C 468.924 887.154, 462.884 901.709, 485 912.735 C 701.050 1020.446, 955.663 843.045, 946.765 591 L 946.500 583.500 969.500 583 C 994.461 582.457, 995.828 582.167, 998.595 576.816 C 1002.042 570.150, 1005.720 575.992, 944.283 490.524 C 919.541 456.104, 915.890 453.067, 905.832 458.529 M 802.713 625.400 C 786.188 629.921, 779.197 652.043, 790.297 664.686 C 804.928 681.349, 832.956 671.043, 832.956 649 C 832.956 632.920, 817.971 621.226, 802.713 625.400 M 736.460 729.005 C 720.172 734.060, 715.602 758.066, 728.840 769.036 C 746.870 783.977, 772.300 766.626, 765.940 743.723 C 762.952 732.962, 747.909 725.452, 736.460 729.005 M 655.604 807.995 C 646.046 810.999, 641.378 822.754, 646.271 831.500 C 653.983 845.286, 675.260 840.761, 676.773 825.013 C 677.862 813.679, 666.522 804.563, 655.604 807.995" stroke="none" fill="#0743fc" fill-rule="evenodd"/><path d="M 872.095 268.385 C 871.463 269.147, 868.929 279.160, 866.464 290.635 C 857.081 334.318, 858.627 332.711, 818.500 340.479 C 805.300 343.034, 793.879 345.733, 793.120 346.478 C 791.128 348.431, 792.490 352.854, 795.265 353.445 C 796.494 353.707, 808.004 355.976, 820.843 358.488 C 858.038 365.764, 856.863 364.515, 865.926 406.405 C 871.094 430.292, 872.088 432.697, 876.349 431.627 C 879.375 430.868, 878.882 432.415, 884.402 406.359 C 893.381 363.975, 891.133 366.263, 931.914 358.022 C 955.698 353.215, 957.951 352.425, 957.985 348.872 C 958.012 345.925, 955.718 345.198, 930.488 340.161 C 890.310 332.140, 890.937 332.940, 880.983 277.026 C 879.258 267.336, 875.776 263.950, 872.095 268.385" stroke="none" fill="#feb603" fill-rule="evenodd"/></svg>