<svg xmlns="http://www.w3.org/2000/svg" width="2172" height="724" viewBox="0 0 2172 724" version="1.1"><path d="M 380.390 281.944 C 283.264 304.586, 295.445 446.905, 395.001 452.669 C 442.444 455.416, 472.595 431.803, 477.005 388.449 C 479.917 359.822, 477.336 357.859, 437.265 358.230 L 408.030 358.500 404.447 362.085 C 399.019 367.515, 398.061 374.092, 401.657 381.233 C 404.204 386.290, 407.211 387, 426.080 387 L 443.258 387 442.552 393.244 C 438.267 431.115, 373.939 432.140, 355.483 394.632 C 328.400 339.590, 386.040 288.059, 436.241 322.433 C 448.834 331.055, 459.162 328.205, 463.113 315.017 C 469.562 293.491, 418.473 273.066, 380.390 281.944 M 1086.097 282.024 C 1069.258 292.577, 1077.802 315.973, 1097.677 313.733 C 1112.589 312.052, 1117.285 291.748, 1104.815 282.868 C 1100.138 279.538, 1090.740 279.114, 1086.097 282.024 M 1631.718 283.070 C 1617.325 286.541, 1615.787 290.297, 1613.526 327.500 C 1612.657 341.800, 1611.057 366.550, 1609.969 382.500 C 1605.791 443.802, 1605.855 444.644, 1615.020 449.248 C 1630.507 457.029, 1638.238 447.801, 1639.944 419.500 C 1641.773 389.149, 1643.931 357.040, 1644.615 350 L 1645.247 343.500 1648.694 351 C 1650.590 355.125, 1658.909 374.025, 1667.181 393 C 1684.990 433.855, 1686.553 436, 1698.508 436 C 1709.461 436, 1710.946 434.214, 1723.026 406.500 C 1744.542 357.141, 1752 341.496, 1752 345.721 C 1752 348.851, 1756.839 415.717, 1757.983 428.386 C 1759.738 447.842, 1767.918 455.239, 1781.433 449.592 C 1791.054 445.572, 1791.077 445.312, 1786.983 385.500 C 1785.327 361.300, 1783.346 331.718, 1782.582 319.763 C 1780.735 290.900, 1778.389 286.067, 1764.750 283.044 C 1748.582 279.461, 1743.677 284.484, 1727.688 321 C 1704.337 374.330, 1698.511 386.913, 1697.633 385.917 C 1697.044 385.248, 1675.939 337.394, 1666.165 314.562 C 1653.600 285.213, 1647.177 279.342, 1631.718 283.070 M 664.909 285.779 C 656.771 290.030, 655.350 293.641, 653.998 313.500 C 653.399 322.300, 650.873 351.775, 648.383 379 C 642.093 447.800, 642.919 452.332, 661.480 450.793 C 675.937 449.594, 675.149 453.333, 681.785 354.500 L 682.523 343.500 685.354 349.500 C 689.870 359.073, 704.076 391.008, 712.045 409.500 C 722.151 432.953, 724.813 435.922, 735.782 435.978 C 746.977 436.035, 748.194 434.414, 764.269 398 C 783.900 353.533, 788.245 343.911, 788.552 344.222 C 788.703 344.375, 789.548 354.175, 790.429 366 C 793.851 411.931, 796.085 438.582, 796.670 440.481 C 800.719 453.606, 820.809 454.620, 826.506 441.986 C 828.333 437.935, 828.326 437.321, 826.149 410.677 C 824.927 395.730, 822.617 366.625, 821.014 346 C 819.411 325.375, 817.895 305.912, 817.645 302.750 C 816.425 287.332, 800.470 278.237, 786.505 284.997 C 778.472 288.886, 780.252 285.461, 747.515 360 C 743.288 369.625, 738.962 379.482, 737.902 381.905 C 736.843 384.327, 735.795 386.127, 735.573 385.905 C 735.352 385.682, 727.021 367.050, 717.061 344.500 C 693.510 291.183, 694.163 292.550, 690.582 289.084 C 683.668 282.393, 673.817 281.125, 664.909 285.779 M 1006.304 297.956 C 1000.459 301.520, 999.552 304.050, 999 318.337 L 998.500 331.272 992.412 331.506 C 972.216 332.286, 972.970 357.983, 993.190 357.996 L 998.879 358 999.205 391.750 C 999.559 428.459, 999.726 429.668, 1005.598 438.142 C 1018.926 457.374, 1060.993 456.128, 1060.993 436.500 C 1060.993 427.680, 1056.291 423.882, 1045.093 423.656 C 1030.190 423.354, 1030 422.886, 1030 386.435 L 1030 358 1040.852 358 C 1055.430 358, 1060.944 354.481, 1060.985 345.151 C 1061.029 335.271, 1056.106 332, 1041.194 332 L 1030.196 332 1029.848 318.572 C 1029.333 298.708, 1019.373 289.987, 1006.304 297.956 M 1412.270 297.483 C 1406.322 300.068, 1405.008 303.806, 1405.004 318.152 L 1405 330.804 1398.861 331.516 C 1380.311 333.669, 1379.928 356.637, 1398.422 357.814 L 1404.904 358.227 1405.202 392.863 L 1405.500 427.500 1408.272 433.143 C 1415.837 448.543, 1439.480 456.524, 1457.237 449.672 C 1472.764 443.681, 1468.913 424, 1452.214 424 C 1435.922 424, 1435.621 423.340, 1435.196 386.750 L 1434.863 358 1445.681 357.998 C 1474.445 357.994, 1476.501 333.162, 1447.834 332 L 1435.500 331.500 1435 317.828 C 1434.530 304.967, 1434.352 303.997, 1432 301.483 C 1426.875 296.004, 1419.234 294.455, 1412.270 297.483 M 541 331.606 C 511.247 339.583, 492.401 368.962, 496.974 400.237 C 507.621 473.048, 615.093 468.424, 618.683 395 C 620.806 351.590, 582.638 320.443, 541 331.606 M 892.656 331.581 C 833.198 345.977, 832.438 435.184, 891.644 450.419 C 932.227 460.861, 969.180 432.837, 969.334 391.500 C 969.490 349.640, 933.673 321.651, 892.656 331.581 M 1291.813 331.409 C 1236.437 347.379, 1238.747 440.155, 1294.792 451.053 C 1310.016 454.014, 1325.416 450.188, 1335.430 440.958 L 1340 436.745 1340 439.738 C 1340 452.598, 1361.632 455.170, 1367.750 443.038 C 1369.989 438.597, 1370 438.350, 1370 391 C 1370 343.628, 1369.990 343.405, 1367.750 339.036 C 1361.510 326.866, 1342.371 328.926, 1339.483 342.079 L 1338.827 345.063 1334.822 340.936 C 1325.886 331.728, 1305.989 327.321, 1291.813 331.409 M 1517.112 331.581 C 1471.470 343.855, 1459.769 413.900, 1498.718 441.693 C 1528.301 462.803, 1592.953 447.757, 1578.005 423.241 C 1573.291 415.509, 1567.619 414.478, 1557.219 419.462 C 1533.075 431.033, 1507 422.384, 1507 402.804 L 1507 400 1540.532 400 C 1585.980 400, 1588.323 398.739, 1585.128 376 C 1580.549 343.415, 1549.211 322.948, 1517.112 331.581 M 1847.112 331.581 C 1790.569 346.787, 1791.234 435.834, 1848 450.527 C 1874.501 457.387, 1911.012 445.084, 1910.996 429.300 C 1910.984 417.003, 1901.052 413.188, 1886.824 420.015 C 1865.516 430.239, 1843.335 424.411, 1838.189 407.236 C 1835.834 399.376, 1832.940 400, 1871.766 400 C 1916.273 400, 1917.785 399.377, 1916.643 381.496 C 1914.318 345.085, 1882.318 322.112, 1847.112 331.581 M 1087.071 332.752 C 1079.124 336.804, 1079.500 333.934, 1079.500 390.500 C 1079.500 439.797, 1079.543 440.911, 1081.562 443.615 C 1088.882 453.420, 1101.168 453.448, 1108.408 443.677 C 1111.536 439.455, 1111.702 343.485, 1108.590 338.344 C 1104.547 331.663, 1094.385 329.022, 1087.071 332.752 M 1137.020 332.752 C 1127.317 337.627, 1127.061 343.394, 1135.619 364.317 C 1139.260 373.218, 1144.159 385.225, 1146.507 391 C 1160.777 426.108, 1167.489 441.839, 1169.275 444.367 C 1175.493 453.160, 1195.556 453.160, 1201.701 444.367 C 1207.099 436.641, 1242 350.538, 1242 344.944 C 1242 331.764, 1222.534 325.625, 1215.377 336.547 C 1213.960 338.710, 1189.359 402.399, 1187.294 409.250 C 1187.004 410.212, 1186.422 411, 1186 411 C 1185.578 411, 1184.992 410.212, 1184.697 409.250 C 1182.658 402.592, 1158.029 338.693, 1156.749 336.740 C 1153.231 331.370, 1143.631 329.430, 1137.020 332.752 M 1521.459 358.367 C 1515.903 360.954, 1511.655 365.385, 1508.867 371.500 C 1505.252 379.430, 1503.949 379, 1531.611 379 L 1556.223 379 1555.528 375.297 C 1552.558 359.466, 1536.372 351.422, 1521.459 358.367 M 1853.239 357.335 C 1846.058 359.939, 1839.120 368.066, 1837.519 375.750 L 1836.841 379 1861.421 379 C 1889.244 379, 1887.462 379.648, 1884.397 370.652 C 1880.438 359.034, 1865.802 352.778, 1853.239 357.335 M 550 358.875 C 514.672 370.507, 523.177 424.925, 559.990 422.794 C 597.027 420.650, 596.098 360.239, 559 358.378 C 555.425 358.199, 551.375 358.423, 550 358.875 M 900.500 359.338 C 867.421 370.300, 872.998 422.903, 907.293 423.408 C 926.283 423.689, 937.500 411.839, 937.500 391.500 C 937.500 368.287, 919.835 352.931, 900.500 359.338 M 1302.994 358.934 C 1275.501 367.297, 1275.402 414.665, 1302.860 422.648 C 1317.448 426.889, 1333.168 418.276, 1337.506 403.666 C 1345.305 377.406, 1325.719 352.021, 1302.994 358.934" stroke="none" fill="#062eae" fill-rule="evenodd"/><path d="M -0 362 L -0 724.001 1086.250 723.750 L 2172.500 723.500 2172.751 361.750 L 2173.003 0 1086.501 0 L 0 0 -0 362 M 0.495 362.500 C 0.495 561.600, 0.610 642.901, 0.750 543.169 C 0.890 443.437, 0.890 280.537, 0.750 181.169 C 0.609 81.801, 0.495 163.400, 0.495 362.500 M 380.390 281.944 C 283.264 304.586, 295.445 446.905, 395.001 452.669 C 442.444 455.416, 472.595 431.803, 477.005 388.449 C 479.917 359.822, 477.336 357.859, 437.265 358.230 L 408.030 358.500 404.447 362.085 C 399.019 367.515, 398.061 374.092, 401.657 381.233 C 404.204 386.290, 407.211 387, 426.080 387 L 443.258 387 442.552 393.244 C 438.267 431.115, 373.939 432.140, 355.483 394.632 C 328.400 339.590, 386.040 288.059, 436.241 322.433 C 448.834 331.055, 459.162 328.205, 463.113 315.017 C 469.562 293.491, 418.473 273.066, 380.390 281.944 M 1086.097 282.024 C 1069.258 292.577, 1077.802 315.973, 1097.677 313.733 C 1112.589 312.052, 1117.285 291.748, 1104.815 282.868 C 1100.138 279.538, 1090.740 279.114, 1086.097 282.024 M 1631.718 283.070 C 1617.325 286.541, 1615.787 290.297, 1613.526 327.500 C 1612.657 341.800, 1611.057 366.550, 1609.969 382.500 C 1605.791 443.802, 1605.855 444.644, 1615.020 449.248 C 1630.507 457.029, 1638.238 447.801, 1639.944 419.500 C 1641.773 389.149, 1643.931 357.040, 1644.615 350 L 1645.247 343.500 1648.694 351 C 1650.590 355.125, 1658.909 374.025, 1667.181 393 C 1684.990 433.855, 1686.553 436, 1698.508 436 C 1709.461 436, 1710.946 434.214, 1723.026 406.500 C 1744.542 357.141, 1752 341.496, 1752 345.721 C 1752 348.851, 1756.839 415.717, 1757.983 428.386 C 1759.738 447.842, 1767.918 455.239, 1781.433 449.592 C 1791.054 445.572, 1791.077 445.312, 1786.983 385.500 C 1785.327 361.300, 1783.346 331.718, 1782.582 319.763 C 1780.735 290.900, 1778.389 286.067, 1764.750 283.044 C 1748.582 279.461, 1743.677 284.484, 1727.688 321 C 1704.337 374.330, 1698.511 386.913, 1697.633 385.917 C 1697.044 385.248, 1675.939 337.394, 1666.165 314.562 C 1653.600 285.213, 1647.177 279.342, 1631.718 283.070 M 664.909 285.779 C 656.771 290.030, 655.350 293.641, 653.998 313.500 C 653.399 322.300, 650.873 351.775, 648.383 379 C 642.093 447.800, 642.919 452.332, 661.480 450.793 C 675.937 449.594, 675.149 453.333, 681.785 354.500 L 682.523 343.500 685.354 349.500 C 689.870 359.073, 704.076 391.008, 712.045 409.500 C 722.151 432.953, 724.813 435.922, 735.782 435.978 C 746.977 436.035, 748.194 434.414, 764.269 398 C 783.900 353.533, 788.245 343.911, 788.552 344.222 C 788.703 344.375, 789.548 354.175, 790.429 366 C 793.851 411.931, 796.085 438.582, 796.670 440.481 C 800.719 453.606, 820.809 454.620, 826.506 441.986 C 828.333 437.935, 828.326 437.321, 826.149 410.677 C 824.927 395.730, 822.617 366.625, 821.014 346 C 819.411 325.375, 817.895 305.912, 817.645 302.750 C 816.425 287.332, 800.470 278.237, 786.505 284.997 C 778.472 288.886, 780.252 285.461, 747.515 360 C 743.288 369.625, 738.962 379.482, 737.902 381.905 C 736.843 384.327, 735.795 386.127, 735.573 385.905 C 735.352 385.682, 727.021 367.050, 717.061 344.500 C 693.510 291.183, 694.163 292.550, 690.582 289.084 C 683.668 282.393, 673.817 281.125, 664.909 285.779 M 1006.304 297.956 C 1000.459 301.520, 999.552 304.050, 999 318.337 L 998.500 331.272 992.412 331.506 C 972.216 332.286, 972.970 357.983, 993.190 357.996 L 998.879 358 999.205 391.750 C 999.559 428.459, 999.726 429.668, 1005.598 438.142 C 1018.926 457.374, 1060.993 456.128, 1060.993 436.500 C 1060.993 427.680, 1056.291 423.882, 1045.093 423.656 C 1030.190 423.354, 1030 422.886, 1030 386.435 L 1030 358 1040.852 358 C 1055.430 358, 1060.944 354.481, 1060.985 345.151 C 1061.029 335.271, 1056.106 332, 1041.194 332 L 1030.196 332 1029.848 318.572 C 1029.333 298.708, 1019.373 289.987, 1006.304 297.956 M 1412.270 297.483 C 1406.322 300.068, 1405.008 303.806, 1405.004 318.152 L 1405 330.804 1398.861 331.516 C 1380.311 333.669, 1379.928 356.637, 1398.422 357.814 L 1404.904 358.227 1405.202 392.863 L 1405.500 427.500 1408.272 433.143 C 1415.837 448.543, 1439.480 456.524, 1457.237 449.672 C 1472.764 443.681, 1468.913 424, 1452.214 424 C 1435.922 424, 1435.621 423.340, 1435.196 386.750 L 1434.863 358 1445.681 357.998 C 1474.445 357.994, 1476.501 333.162, 1447.834 332 L 1435.500 331.500 1435 317.828 C 1434.530 304.967, 1434.352 303.997, 1432 301.483 C 1426.875 296.004, 1419.234 294.455, 1412.270 297.483 M 541 331.606 C 511.247 339.583, 492.401 368.962, 496.974 400.237 C 507.621 473.048, 615.093 468.424, 618.683 395 C 620.806 351.590, 582.638 320.443, 541 331.606 M 892.656 331.581 C 833.198 345.977, 832.438 435.184, 891.644 450.419 C 932.227 460.861, 969.180 432.837, 969.334 391.500 C 969.490 349.640, 933.673 321.651, 892.656 331.581 M 1291.813 331.409 C 1236.437 347.379, 1238.747 440.155, 1294.792 451.053 C 1310.016 454.014, 1325.416 450.188, 1335.430 440.958 L 1340 436.745 1340 439.738 C 1340 452.598, 1361.632 455.170, 1367.750 443.038 C 1369.989 438.597, 1370 438.350, 1370 391 C 1370 343.628, 1369.990 343.405, 1367.750 339.036 C 1361.510 326.866, 1342.371 328.926, 1339.483 342.079 L 1338.827 345.063 1334.822 340.936 C 1325.886 331.728, 1305.989 327.321, 1291.813 331.409 M 1517.112 331.581 C 1471.470 343.855, 1459.769 413.900, 1498.718 441.693 C 1528.301 462.803, 1592.953 447.757, 1578.005 423.241 C 1573.291 415.509, 1567.619 414.478, 1557.219 419.462 C 1533.075 431.033, 1507 422.384, 1507 402.804 L 1507 400 1540.532 400 C 1585.980 400, 1588.323 398.739, 1585.128 376 C 1580.549 343.415, 1549.211 322.948, 1517.112 331.581 M 1847.112 331.581 C 1790.569 346.787, 1791.234 435.834, 1848 450.527 C 1874.501 457.387, 1911.012 445.084, 1910.996 429.300 C 1910.984 417.003, 1901.052 413.188, 1886.824 420.015 C 1865.516 430.239, 1843.335 424.411, 1838.189 407.236 C 1835.834 399.376, 1832.940 400, 1871.766 400 C 1916.273 400, 1917.785 399.377, 1916.643 381.496 C 1914.318 345.085, 1882.318 322.112, 1847.112 331.581 M 1087.071 332.752 C 1079.124 336.804, 1079.500 333.934, 1079.500 390.500 C 1079.500 439.797, 1079.543 440.911, 1081.562 443.615 C 1088.882 453.420, 1101.168 453.448, 1108.408 443.677 C 1111.536 439.455, 1111.702 343.485, 1108.590 338.344 C 1104.547 331.663, 1094.385 329.022, 1087.071 332.752 M 1137.020 332.752 C 1127.317 337.627, 1127.061 343.394, 1135.619 364.317 C 1139.260 373.218, 1144.159 385.225, 1146.507 391 C 1160.777 426.108, 1167.489 441.839, 1169.275 444.367 C 1175.493 453.160, 1195.556 453.160, 1201.701 444.367 C 1207.099 436.641, 1242 350.538, 1242 344.944 C 1242 331.764, 1222.534 325.625, 1215.377 336.547 C 1213.960 338.710, 1189.359 402.399, 1187.294 409.250 C 1187.004 410.212, 1186.422 411, 1186 411 C 1185.578 411, 1184.992 410.212, 1184.697 409.250 C 1182.658 402.592, 1158.029 338.693, 1156.749 336.740 C 1153.231 331.370, 1143.631 329.430, 1137.020 332.752 M 1521.459 358.367 C 1515.903 360.954, 1511.655 365.385, 1508.867 371.500 C 1505.252 379.430, 1503.949 379, 1531.611 379 L 1556.223 379 1555.528 375.297 C 1552.558 359.466, 1536.372 351.422, 1521.459 358.367 M 1853.239 357.335 C 1846.058 359.939, 1839.120 368.066, 1837.519 375.750 L 1836.841 379 1861.421 379 C 1889.244 379, 1887.462 379.648, 1884.397 370.652 C 1880.438 359.034, 1865.802 352.778, 1853.239 357.335 M 550 358.875 C 514.672 370.507, 523.177 424.925, 559.990 422.794 C 597.027 420.650, 596.098 360.239, 559 358.378 C 555.425 358.199, 551.375 358.423, 550 358.875 M 900.500 359.338 C 867.421 370.300, 872.998 422.903, 907.293 423.408 C 926.283 423.689, 937.500 411.839, 937.500 391.500 C 937.500 368.287, 919.835 352.931, 900.500 359.338 M 1302.994 358.934 C 1275.501 367.297, 1275.402 414.665, 1302.860 422.648 C 1317.448 426.889, 1333.168 418.276, 1337.506 403.666 C 1345.305 377.406, 1325.719 352.021, 1302.994 358.934" stroke="none" fill="#fbfbfb" fill-rule="evenodd"/></svg>